{
  "asset": {
    "version": "2.0",
    "generator": "gltfeditor.com"
  },
  "buffers": [
    {
      "uri": "Arrow3D3.bin",
      "byteLength": 10920
    }
  ],
  "bufferViews": [
    {
      "buffer": 0,
      "byteLength": 5040,
      "byteOffset": 0,
      "target": 34962,
      "byteStride": 12
    },
    {
      "buffer": 0,
      "byteLength": 5040,
      "byteOffset": 5040,
      "target": 34962,
      "byteStride": 12
    },
    {
      "buffer": 0,
      "byteLength": 840,
      "byteOffset": 10080,
      "target": 34963
    }
  ],
  "accessors": [
    {
      "bufferView": 0,
      "byteOffset": 0,
      "componentType": 5126,
      "normalized": false,
      "count": 420,
      "max": [
        9.903690338134766,
        1,
        5.04079008102417
      ],
      "min": [
        -10.09630012512207,
        -3.086593883146183e-16,
        -4.95920991897583
      ],
      "type": "VEC3"
    },
    {
      "bufferView": 1,
      "byteOffset": 0,
      "componentType": 5126,
      "normalized": false,
      "count": 420,
      "max": [
        0.7009249925613403,
        1,
        1
      ],
      "min": [
        -1,
        -1,
        -1
      ],
      "type": "VEC3"
    },
    {
      "bufferView": 2,
      "byteOffset": 0,
      "componentType": 5123,
      "normalized": false,
      "count": 420,
      "max": [
        419
      ],
      "min": [
        0
      ],
      "type": "SCALAR"
    }
  ],
  "scene": 0,
  "scenes": [
    {
      "nodes": [
        1
      ],
      "name": "Arrow3D3"
    }
  ],
  "nodes": [
    {
      "name": "arrow",
      "matrix": [
        0.20000000298023224,
        0,
        0,
        0,
        0,
        0.20000000298023224,
        0,
        0,
        0,
        0,
        0.20000000298023224,
        0,
        5.833600044250488,
        0,
        0,
        1
      ],
      "mesh": 0
    },
    {
      "name": "arrow",
      "children": [
        0
      ]
    }
  ],
  "meshes": [
    {
      "primitives": [
        {
          "attributes": {
            "POSITION": 0,
            "NORMAL": 1
          },
          "material": 0,
          "mode": 4,
          "indices": 2
        }
      ]
    }
  ],
  "materials": [
    {
      "pbrMetallicRoughness": {
        "baseColorFactor": [
          1,
          1,
          1,
          1
        ],
        "metallicFactor": 1,
        "roughnessFactor": 1
      },
      "emissiveFactor": [
        0,
        0,
        0
      ],
      "alphaMode": "OPAQUE",
      "doubleSided": false
    }
  ]
}