{
  "asset": {
    "version": "2.0",
    "generator": "gltfeditor.com"
  },
  "buffers": [
    {
      "uri": "untitled.bin",
      "byteLength": 11064
    }
  ],
  "bufferViews": [
    {
      "buffer": 0,
      "byteLength": 9648,
      "byteOffset": 1416,
      "target": 34962,
      "byteStride": 12
    },
    {
      "buffer": 0,
      "byteLength": 1416,
      "byteOffset": 0,
      "target": 34963
    }
  ],
  "accessors": [
    {
      "bufferView": 0,
      "byteOffset": 0,
      "componentType": 5126,
      "normalized": false,
      "count": 402,
      "max": [
        -0.07303400337696075,
        0.5414729714393616,
        2.58896803855896
      ],
      "min": [
        -0.1230349987745285,
        -0.06810799986124039,
        2.0881190299987793
      ],
      "type": "VEC3"
    },
    {
      "bufferView": 0,
      "byteOffset": 4824,
      "componentType": 5126,
      "normalized": false,
      "count": 402,
      "max": [
        1,
        1,
        1
      ],
      "min": [
        -1,
        -1,
        -1
      ],
      "type": "VEC3"
    },
    {
      "bufferView": 1,
      "byteOffset": 0,
      "componentType": 5123,
      "normalized": false,
      "count": 708,
      "max": [
        401
      ],
      "min": [
        0
      ],
      "type": "SCALAR"
    }
  ],
  "scene": 0,
  "scenes": [
    {
      "nodes": [
        0
      ]
    }
  ],
  "nodes": [
    {
      "name": "node-0",
      "matrix": [
        3,
        0,
        0,
        0,
        0,
        3,
        0,
        0,
        0,
        0,
        3,
        0,
        0,
        0,
        0,
        1
      ],
      "mesh": 0
    }
  ],
  "meshes": [
    {
      "primitives": [
        {
          "attributes": {
            "POSITION": 0,
            "NORMAL": 1
          },
          "material": 0,
          "mode": 4,
          "indices": 2
        }
      ]
    }
  ],
  "materials": [
    {
      "pbrMetallicRoughness": {
        "baseColorFactor": [
          0,
          0.1607843137254902,
          0.7686274509803922,
          1
        ],
        "metallicFactor": 0,
        "roughnessFactor": 0.36219462664547264
      },
      "emissiveFactor": [
        0,
        0,
        0
      ],
      "alphaMode": "OPAQUE",
      "doubleSided": true
    }
  ]
}