{
  "asset": {
    "version": "2.0",
    "generator": "gltfeditor.com"
  },
  "buffers": [
    {
      "uri": "untitled.bin",
      "byteLength": 1368
    }
  ],
  "bufferViews": [
    {
      "buffer": 0,
      "byteLength": 1248,
      "byteOffset": 120,
      "target": 34962,
      "byteStride": 12
    },
    {
      "buffer": 0,
      "byteLength": 120,
      "byteOffset": 0,
      "target": 34963
    }
  ],
  "accessors": [
    {
      "bufferView": 0,
      "byteOffset": 624,
      "componentType": 5126,
      "count": 52,
      "max": [
        0.7101008296012878,
        1,
        0.7478504180908203
      ],
      "min": [
        -0.7101008296012878,
        -1,
        -0.7478504180908203
      ],
      "type": "VEC3"
    },
    {
      "bufferView": 0,
      "byteOffset": 0,
      "componentType": 5126,
      "count": 52,
      "max": [
        0,
        1,
        0
      ],
      "min": [
        -9,
        0,
        -5.017000198364258
      ],
      "type": "VEC3"
    },
    {
      "bufferView": 1,
      "byteOffset": 0,
      "componentType": 5123,
      "normalized": false,
      "count": 60,
      "max": [
        51
      ],
      "min": [
        0
      ],
      "type": "SCALAR"
    }
  ],
  "scene": 0,
  "scenes": [
    {
      "nodes": [
        3,
        4
      ]
    }
  ],
  "nodes": [
    {
      "mesh": 0
    },
    {
      "children": [
        0
      ],
      "matrix": [
        1,
        0,
        0,
        0,
        0,
        1,
        0,
        0,
        0,
        0,
        1,
        0,
        4.522500038146973,
        -0.47749999165534973,
        2.294708251953125,
        1
      ]
    },
    {
      "children": [
        1
      ],
      "matrix": [
        1,
        0,
        0,
        0,
        0,
        1,
        0,
        0,
        0,
        0,
        1,
        0,
        -4.522500038146973,
        0.47749999165534973,
        -2.294708251953125,
        1
      ]
    },
    {
      "children": [
        2
      ],
      "matrix": [
        0.20000000298023224,
        0,
        0,
        0,
        0,
        0.20000000298023224,
        0,
        0,
        0,
        0,
        0.20000000298023224,
        0,
        0,
        0,
        0,
        1
      ]
    },
    {
      "matrix": [
        0,
        0,
        0,
        0,
        0,
        0,
        0,
        0,
        -2.1224570274353027,
        4.2449140548706055,
        -2.1224570274353027,
        0,
        -9.791879653930664,
        10.897873878479004,
        -6.963379383087158,
        1
      ]
    }
  ],
  "meshes": [
    {
      "primitives": [
        {
          "attributes": {
            "NORMAL": 0,
            "POSITION": 1
          },
          "material": 0,
          "mode": 4,
          "indices": 2
        }
      ]
    }
  ],
  "materials": [
    {
      "pbrMetallicRoughness": {
        "baseColorFactor": [
          1,
          1,
          1,
          1
        ],
        "metallicFactor": 0,
        "roughnessFactor": 0.9699476628648295
      },
      "emissiveFactor": [
        0,
        0,
        0
      ],
      "alphaMode": "OPAQUE",
      "doubleSided": true
    }
  ]
}