{
  "asset": {
    "version": "2.0",
    "generator": "gltfeditor.com"
  },
  "buffers": [
    {
      "uri": "scene-0.bin",
      "byteLength": 62464
    }
  ],
  "bufferViews": [
    {
      "buffer": 0,
      "byteLength": 41088,
      "byteOffset": 7680,
      "target": 34962,
      "byteStride": 12
    },
    {
      "buffer": 0,
      "byteLength": 13696,
      "byteOffset": 48768,
      "target": 34962,
      "byteStride": 8
    },
    {
      "buffer": 0,
      "byteLength": 7680,
      "byteOffset": 0,
      "target": 34963
    }
  ],
  "accessors": [
    {
      "bufferView": 0,
      "byteOffset": 6960,
      "componentType": 5126,
      "count": 580,
      "max": [
        0,
        3.8285701280459203e-16,
        1
      ],
      "min": [
        0,
        -3.8285701280459203e-16,
        -1
      ],
      "type": "VEC3"
    },
    {
      "bufferView": 0,
      "byteOffset": 0,
      "componentType": 5126,
      "count": 580,
      "max": [
        31.11479949951172,
        4.605420112609863,
        -3.111649990081787
      ],
      "min": [
        19.172500610351562,
        -3.617079973220825,
        -4.296629905700684
      ],
      "type": "VEC3"
    },
    {
      "bufferView": 1,
      "byteOffset": 0,
      "componentType": 5126,
      "count": 580,
      "max": [
        5.497419834136963,
        -0.018212199211120605
      ],
      "min": [
        -5.497419834136963,
        -3.8785400390625
      ],
      "type": "VEC2"
    },
    {
      "bufferView": 2,
      "byteOffset": 0,
      "componentType": 5123,
      "normalized": false,
      "count": 2100,
      "max": [
        579
      ],
      "min": [
        0
      ],
      "type": "SCALAR"
    },
    {
      "bufferView": 0,
      "byteOffset": 27504,
      "componentType": 5126,
      "count": 1132,
      "max": [
        0.9986767768859863,
        1,
        3.8285701280459203e-16
      ],
      "min": [
        -1,
        -1,
        -3.8285701280459203e-16
      ],
      "type": "VEC3"
    },
    {
      "bufferView": 0,
      "byteOffset": 13920,
      "componentType": 5126,
      "count": 1132,
      "max": [
        31.11479949951172,
        4.605420112609863,
        -3.111649990081787
      ],
      "min": [
        19.172500610351562,
        -3.617079973220825,
        -4.296629905700684
      ],
      "type": "VEC3"
    },
    {
      "bufferView": 1,
      "byteOffset": 4640,
      "componentType": 5126,
      "count": 1132,
      "max": [
        5.382510185241699,
        8.881779961836516e-16
      ],
      "min": [
        -5.619420051574707,
        -1.1875
      ],
      "type": "VEC2"
    },
    {
      "bufferView": 2,
      "byteOffset": 4200,
      "componentType": 5123,
      "normalized": false,
      "count": 1740,
      "max": [
        1131
      ],
      "min": [
        0
      ],
      "type": "SCALAR"
    }
  ],
  "scene": 0,
  "scenes": [
    {
      "nodes": [
        3,
        6,
        7
      ],
      "name": "scene-0"
    }
  ],
  "nodes": [
    {
      "mesh": 0
    },
    {
      "children": [
        0
      ],
      "matrix": [
        1,
        0,
        0,
        0,
        0,
        1,
        0,
        0,
        0,
        0,
        1,
        0,
        -25.068479537963867,
        0.12320476025342941,
        3.6742842197418213,
        1
      ]
    },
    {
      "children": [
        1
      ],
      "matrix": [
        1,
        0,
        0,
        0,
        0,
        1,
        0,
        0,
        0,
        0,
        1,
        0,
        25.068479537963867,
        -0.12320476025342941,
        -3.6742842197418213,
        1
      ]
    },
    {
      "children": [
        2
      ],
      "matrix": [
        0.10000000149011612,
        0,
        0,
        0,
        0,
        0.10000000149011612,
        0,
        0,
        0,
        0,
        0.10000000149011612,
        0,
        0,
        0,
        0,
        1
      ]
    },
    {
      "matrix": [
        1,
        0,
        0,
        0,
        0,
        1,
        0,
        0,
        0,
        0,
        1,
        0,
        -6.783998966217041,
        3.3919994831085205,
        3.3919994831085205,
        1
      ]
    },
    {
      "matrix": [
        0.9999997615814209,
        -0.00001995130514842458,
        0.0006727154250256717,
        0,
        0.000016424488421762362,
        0.9999862313270569,
        0.005242256447672844,
        0,
        -0.000672810769174248,
        -0.005242243874818087,
        0.9999859929084778,
        0,
        0.06310974061489105,
        0.4917064607143402,
        6.2043867111206055,
        1
      ]
    },
    {
      "children": [
        4,
        5
      ],
      "matrix": [
        0.9985264539718628,
        1.255592851912013e-11,
        -0.054266829043626785,
        0,
        -0.001608699094504118,
        0.999560534954071,
        -0.029600562527775764,
        0,
        0.05424297973513603,
        0.02964424341917038,
        0.9980876445770264,
        0,
        26.02458953857422,
        0.4016323983669281,
        13.964485168457031,
        1
      ]
    },
    {
      "matrix": [
        0,
        0,
        0,
        0,
        0,
        0,
        0,
        0,
        -2.7972514629364014,
        5.594502925872803,
        -2.7972514629364014,
        0,
        18.447952270507812,
        13.141493797302246,
        -10.553902626037598,
        1
      ]
    }
  ],
  "meshes": [
    {
      "primitives": [
        {
          "attributes": {
            "NORMAL": 0,
            "POSITION": 1,
            "TEXCOORD_0": 2
          },
          "material": 0,
          "mode": 4,
          "indices": 3
        },
        {
          "attributes": {
            "NORMAL": 4,
            "POSITION": 5,
            "TEXCOORD_0": 6
          },
          "material": 1,
          "mode": 4,
          "indices": 7
        }
      ]
    }
  ],
  "materials": [
    {
      "pbrMetallicRoughness": {
        "baseColorFactor": [
          0,
          1,
          1,
          1
        ],
        "metallicFactor": 0,
        "roughnessFactor": 0.5388542224204536
      },
      "emissiveFactor": [
        0,
        0,
        0
      ],
      "alphaMode": "OPAQUE",
      "doubleSided": true
    },
    {
      "pbrMetallicRoughness": {
        "baseColorFactor": [
          0,
          0,
          0,
          1
        ],
        "metallicFactor": 0,
        "roughnessFactor": 0.5388542224204536
      },
      "emissiveFactor": [
        0,
        0,
        0
      ],
      "alphaMode": "OPAQUE",
      "doubleSided": true
    }
  ]
}